<mxfile host="app.diagrams.net" modified="2020-10-06T01:46:34.126Z" agent="5.0 (Windows NT 10.0; Win64; x64) AppleWebKit/537.36 (KHTML, like Gecko) Chrome/85.0.4183.121 Safari/537.36" etag="mpvZkEyRzuK38fxpqVyx" version="13.7.7" type="github">
  <diagram name="Page-1" id="55a83fd1-7818-8e21-69c5-c3457e3827bb">
    <mxGraphModel dx="1736" dy="802" grid="1" gridSize="10" guides="1" tooltips="1" connect="1" arrows="1" fold="1" page="1" pageScale="1" pageWidth="1100" pageHeight="850" background="#ffffff" math="0" shadow="0">
      <root>
        <mxCell id="0" />
        <mxCell id="1" parent="0" />
        <mxCell id="Mlf7qjFEq5sX_WtgoT0Z-7" value="" style="edgeStyle=orthogonalEdgeStyle;rounded=0;orthogonalLoop=1;jettySize=auto;html=1;" edge="1" parent="1" source="69ecfefc5c41e42c-2" target="Mlf7qjFEq5sX_WtgoT0Z-4">
          <mxGeometry relative="1" as="geometry" />
        </mxCell>
        <mxCell id="69ecfefc5c41e42c-2" value="Internet" style="image;html=1;labelBackgroundColor=#ffffff;image=img/lib/clip_art/networking/Cloud_128x128.png;rounded=1;shadow=0;comic=0;strokeWidth=2;fontSize=22;labelPosition=center;verticalLabelPosition=top;align=center;verticalAlign=bottom;" parent="1" vertex="1">
          <mxGeometry x="565" y="75" width="80" height="80" as="geometry" />
        </mxCell>
        <mxCell id="Mlf7qjFEq5sX_WtgoT0Z-5" value="" style="edgeStyle=orthogonalEdgeStyle;rounded=0;orthogonalLoop=1;jettySize=auto;html=1;" edge="1" parent="1" source="Mlf7qjFEq5sX_WtgoT0Z-2" target="Mlf7qjFEq5sX_WtgoT0Z-3">
          <mxGeometry relative="1" as="geometry" />
        </mxCell>
        <mxCell id="Mlf7qjFEq5sX_WtgoT0Z-2" value="" style="fontColor=#0066CC;verticalAlign=top;verticalLabelPosition=bottom;labelPosition=center;align=center;html=1;outlineConnect=0;fillColor=#CCCCCC;strokeColor=#6881B3;gradientColor=none;gradientDirection=north;strokeWidth=2;shape=mxgraph.networks.router;" vertex="1" parent="1">
          <mxGeometry x="555" y="435" width="100" height="30" as="geometry" />
        </mxCell>
        <mxCell id="Mlf7qjFEq5sX_WtgoT0Z-9" style="edgeStyle=orthogonalEdgeStyle;rounded=0;orthogonalLoop=1;jettySize=auto;html=1;" edge="1" parent="1" source="Mlf7qjFEq5sX_WtgoT0Z-3" target="Mlf7qjFEq5sX_WtgoT0Z-8">
          <mxGeometry relative="1" as="geometry" />
        </mxCell>
        <mxCell id="Mlf7qjFEq5sX_WtgoT0Z-20" style="edgeStyle=orthogonalEdgeStyle;rounded=0;orthogonalLoop=1;jettySize=auto;html=1;" edge="1" parent="1" source="Mlf7qjFEq5sX_WtgoT0Z-3" target="Mlf7qjFEq5sX_WtgoT0Z-19">
          <mxGeometry relative="1" as="geometry" />
        </mxCell>
        <mxCell id="Mlf7qjFEq5sX_WtgoT0Z-3" value="" style="fontColor=#0066CC;verticalAlign=top;verticalLabelPosition=bottom;labelPosition=center;align=center;html=1;outlineConnect=0;fillColor=#CCCCCC;strokeColor=#6881B3;gradientColor=none;gradientDirection=north;strokeWidth=2;shape=mxgraph.networks.server;" vertex="1" parent="1">
          <mxGeometry x="577.5" y="575" width="55" height="70" as="geometry" />
        </mxCell>
        <mxCell id="Mlf7qjFEq5sX_WtgoT0Z-6" value="" style="edgeStyle=orthogonalEdgeStyle;rounded=0;orthogonalLoop=1;jettySize=auto;html=1;" edge="1" parent="1" source="Mlf7qjFEq5sX_WtgoT0Z-4" target="Mlf7qjFEq5sX_WtgoT0Z-2">
          <mxGeometry relative="1" as="geometry" />
        </mxCell>
        <mxCell id="Mlf7qjFEq5sX_WtgoT0Z-4" value="" style="fontColor=#0066CC;verticalAlign=top;verticalLabelPosition=bottom;labelPosition=center;align=center;html=1;outlineConnect=0;fillColor=#CCCCCC;strokeColor=#6881B3;gradientColor=none;gradientDirection=north;strokeWidth=2;shape=mxgraph.networks.firewall;" vertex="1" parent="1">
          <mxGeometry x="555" y="245" width="100" height="100" as="geometry" />
        </mxCell>
        <mxCell id="Mlf7qjFEq5sX_WtgoT0Z-16" style="edgeStyle=orthogonalEdgeStyle;rounded=0;orthogonalLoop=1;jettySize=auto;html=1;exitX=0.1;exitY=1;exitDx=0;exitDy=0;exitPerimeter=0;entryX=0.5;entryY=0.07;entryDx=0;entryDy=0;entryPerimeter=0;" edge="1" parent="1" source="Mlf7qjFEq5sX_WtgoT0Z-8" target="Mlf7qjFEq5sX_WtgoT0Z-13">
          <mxGeometry relative="1" as="geometry" />
        </mxCell>
        <mxCell id="Mlf7qjFEq5sX_WtgoT0Z-17" style="edgeStyle=orthogonalEdgeStyle;rounded=0;orthogonalLoop=1;jettySize=auto;html=1;exitX=0.5;exitY=1;exitDx=0;exitDy=0;exitPerimeter=0;entryX=0.5;entryY=0.07;entryDx=0;entryDy=0;entryPerimeter=0;" edge="1" parent="1" source="Mlf7qjFEq5sX_WtgoT0Z-8" target="Mlf7qjFEq5sX_WtgoT0Z-14">
          <mxGeometry relative="1" as="geometry" />
        </mxCell>
        <mxCell id="Mlf7qjFEq5sX_WtgoT0Z-18" style="edgeStyle=orthogonalEdgeStyle;rounded=0;orthogonalLoop=1;jettySize=auto;html=1;exitX=0.9;exitY=1;exitDx=0;exitDy=0;exitPerimeter=0;" edge="1" parent="1" source="Mlf7qjFEq5sX_WtgoT0Z-8" target="Mlf7qjFEq5sX_WtgoT0Z-15">
          <mxGeometry relative="1" as="geometry" />
        </mxCell>
        <mxCell id="Mlf7qjFEq5sX_WtgoT0Z-8" value="" style="fontColor=#0066CC;verticalAlign=top;verticalLabelPosition=bottom;labelPosition=center;align=center;html=1;outlineConnect=0;fillColor=#CCCCCC;strokeColor=#6881B3;gradientColor=none;gradientDirection=north;strokeWidth=2;shape=mxgraph.networks.switch;" vertex="1" parent="1">
          <mxGeometry x="165" y="595" width="100" height="30" as="geometry" />
        </mxCell>
        <mxCell id="Mlf7qjFEq5sX_WtgoT0Z-13" value="" style="fontColor=#0066CC;verticalAlign=top;verticalLabelPosition=bottom;labelPosition=center;align=center;html=1;outlineConnect=0;fillColor=#CCCCCC;strokeColor=#6881B3;gradientColor=none;gradientDirection=north;strokeWidth=2;shape=mxgraph.networks.pc;" vertex="1" parent="1">
          <mxGeometry x="15" y="685" width="100" height="70" as="geometry" />
        </mxCell>
        <mxCell id="Mlf7qjFEq5sX_WtgoT0Z-14" value="" style="fontColor=#0066CC;verticalAlign=top;verticalLabelPosition=bottom;labelPosition=center;align=center;html=1;outlineConnect=0;fillColor=#CCCCCC;strokeColor=#6881B3;gradientColor=none;gradientDirection=north;strokeWidth=2;shape=mxgraph.networks.pc;" vertex="1" parent="1">
          <mxGeometry x="165" y="685" width="100" height="70" as="geometry" />
        </mxCell>
        <mxCell id="Mlf7qjFEq5sX_WtgoT0Z-15" value="" style="fontColor=#0066CC;verticalAlign=top;verticalLabelPosition=bottom;labelPosition=center;align=center;html=1;outlineConnect=0;fillColor=#CCCCCC;strokeColor=#6881B3;gradientColor=none;gradientDirection=north;strokeWidth=2;shape=mxgraph.networks.phone_2;" vertex="1" parent="1">
          <mxGeometry x="335" y="685" width="70" height="70" as="geometry" />
        </mxCell>
        <mxCell id="Mlf7qjFEq5sX_WtgoT0Z-31" value="" style="edgeStyle=orthogonalEdgeStyle;rounded=0;orthogonalLoop=1;jettySize=auto;html=1;" edge="1" parent="1" source="Mlf7qjFEq5sX_WtgoT0Z-19" target="Mlf7qjFEq5sX_WtgoT0Z-26">
          <mxGeometry relative="1" as="geometry" />
        </mxCell>
        <mxCell id="Mlf7qjFEq5sX_WtgoT0Z-32" style="edgeStyle=orthogonalEdgeStyle;rounded=0;orthogonalLoop=1;jettySize=auto;html=1;entryX=0.5;entryY=0;entryDx=0;entryDy=0;entryPerimeter=0;" edge="1" parent="1" source="Mlf7qjFEq5sX_WtgoT0Z-19" target="Mlf7qjFEq5sX_WtgoT0Z-23">
          <mxGeometry relative="1" as="geometry" />
        </mxCell>
        <mxCell id="Mlf7qjFEq5sX_WtgoT0Z-33" style="edgeStyle=orthogonalEdgeStyle;rounded=0;orthogonalLoop=1;jettySize=auto;html=1;" edge="1" parent="1" source="Mlf7qjFEq5sX_WtgoT0Z-19" target="Mlf7qjFEq5sX_WtgoT0Z-21">
          <mxGeometry relative="1" as="geometry">
            <mxPoint x="1065" y="665" as="targetPoint" />
          </mxGeometry>
        </mxCell>
        <mxCell id="Mlf7qjFEq5sX_WtgoT0Z-19" value="" style="fontColor=#0066CC;verticalAlign=top;verticalLabelPosition=bottom;labelPosition=center;align=center;html=1;outlineConnect=0;fillColor=#CCCCCC;strokeColor=#6881B3;gradientColor=none;gradientDirection=north;strokeWidth=2;shape=mxgraph.networks.wireless_modem;" vertex="1" parent="1">
          <mxGeometry x="795" y="577.5" width="60" height="65" as="geometry" />
        </mxCell>
        <mxCell id="Mlf7qjFEq5sX_WtgoT0Z-21" value="" style="fontColor=#0066CC;verticalAlign=top;verticalLabelPosition=bottom;labelPosition=center;align=center;html=1;outlineConnect=0;fillColor=#CCCCCC;strokeColor=#6881B3;gradientColor=none;gradientDirection=north;strokeWidth=2;shape=mxgraph.networks.mobile;" vertex="1" parent="1">
          <mxGeometry x="1055" y="705" width="30" height="60" as="geometry" />
        </mxCell>
        <mxCell id="Mlf7qjFEq5sX_WtgoT0Z-23" value="" style="fontColor=#0066CC;verticalAlign=top;verticalLabelPosition=bottom;labelPosition=center;align=center;html=1;outlineConnect=0;fillColor=#CCCCCC;strokeColor=#6881B3;gradientColor=none;gradientDirection=north;strokeWidth=2;shape=mxgraph.networks.laptop;" vertex="1" parent="1">
          <mxGeometry x="925" y="725" width="70" height="48" as="geometry" />
        </mxCell>
        <mxCell id="Mlf7qjFEq5sX_WtgoT0Z-26" value="" style="fontColor=#0066CC;verticalAlign=top;verticalLabelPosition=bottom;labelPosition=center;align=center;html=1;outlineConnect=0;fillColor=#CCCCCC;strokeColor=#6881B3;gradientColor=none;gradientDirection=north;strokeWidth=2;shape=mxgraph.networks.printer;" vertex="1" parent="1">
          <mxGeometry x="790" y="705" width="70" height="80" as="geometry" />
        </mxCell>
      </root>
    </mxGraphModel>
  </diagram>
</mxfile>
